# xmcd
#
# Track frame offsets: 
#        150
#        13996
#        28131
#        37094
#        49819
#        60434
#        72056
#        84062
#        97736
#        109313
#
# Disc length: 1633 seconds
#
# Revision: 0
# Processed by: cddbd v1.5.1PL0 Copyright (c) Steve Scherf et al.
# Submitted via: ExactAudioCopy v0.95a5
#
DISCID=79065f0a
DTITLE=Juan Torres - COLECCION DE ORO
DYEAR=2003
DGENRE=Musica ranchera
TTITLE0=Pero Hombre Amigo-El Chubasco
TTITLE1=Paso del Norte
TTITLE2=Echenle un Quinto al Piano
TTITLE3=El Buey de la Barranca
TTITLE4=El Golpe Traidor
TTITLE5=Una Moneda
TTITLE6=El Taconazo
TTITLE7=Camelia la Texana
TTITLE8=El Sube y Baja
TTITLE9=Los Dos Amigos
EXTD=
EXTT0=
EXTT1=
EXTT2=
EXTT3=
EXTT4=
EXTT5=
EXTT6=
EXTT7=
EXTT8=
EXTT9=
PLAYORDER=
